<svg   id="chart"   width="1000"   height="500" fill-opacity="0.4"  viewBox="0 0 1000 500"   xmlns="http://www.w3.org/2000/svg" >      <path d="M 0,494.3179097662856 C 12.6,490.3054948763971 37.8,483.51065810061334 63,474.25583531684316 C 88.2,465.001012533073 100.8,453.07421053078673 126,448.0437958474348 C 151.2,443.0133811640829 163.8,451.50004137881757 189,449.1037619000835 C 214.2,446.7074824213494 226.8,455.24598306057146 252,436.06239845376433 C 277.2,416.87881384695726 289.8,359.99030625858495 315,353.185838866048 C 340.2,346.3813714735111 352.8,394.8714813677528 378,402.0400614910796 C 403.2,409.2086416144064 415.8,410.0615132408917 441,389.0287394826822 C 466.2,367.99596572447274 478.8,303.5175228975842 504,296.8761927000323 C 529.2,290.2348625024804 541.8,349.2636016336713 567,355.8220884949228 C 592.2,362.3805753561743 604.8,340.2316299405616 630,329.66862700628974 C 655.2,319.10562407201786 667.8,340.95892928628456 693,303.0070738235633 C 718.2,265.05521836084205 730.8,141.69496444509852 756,139.90934969268346 C 781.2,138.1237349402684 793.8,303.59794619385457 819,294.07900006148805 C 844.2,284.5600539291215 856.8,117.22626818641554 882,92.31461903085085 C 907.2,67.40296987528616 919.8,168.31644454819158 945,169.52075428366464 C 970.2,170.7250640191377 995.4,112.57308502330588 1008,98.33616770821618,L 1000 500,L 0 500Z" fill="#52f207" />   <path d="M 0,494.3179097662856 C 12.6,490.3054948763971 37.8,483.51065810061334 63,474.25583531684316 C 88.2,465.001012533073 100.8,453.07421053078673 126,448.0437958474348 C 151.2,443.0133811640829 163.8,451.50004137881757 189,449.1037619000835 C 214.2,446.7074824213494 226.8,455.24598306057146 252,436.06239845376433 C 277.2,416.87881384695726 289.8,359.99030625858495 315,353.185838866048 C 340.2,346.3813714735111 352.8,394.8714813677528 378,402.0400614910796 C 403.2,409.2086416144064 415.8,410.0615132408917 441,389.0287394826822 C 466.2,367.99596572447274 478.8,303.5175228975842 504,296.8761927000323 C 529.2,290.2348625024804 541.8,349.2636016336713 567,355.8220884949228 C 592.2,362.3805753561743 604.8,340.2316299405616 630,329.66862700628974 C 655.2,319.10562407201786 667.8,340.95892928628456 693,303.0070738235633 C 718.2,265.05521836084205 730.8,141.69496444509852 756,139.90934969268346 C 781.2,138.1237349402684 793.8,303.59794619385457 819,294.07900006148805 C 844.2,284.5600539291215 856.8,117.22626818641554 882,92.31461903085085 C 907.2,67.40296987528616 919.8,168.31644454819158 945,169.52075428366464 C 970.2,170.7250640191377 995.4,112.57308502330588 1008,98.33616770821618" fill="none" stroke="#52f207" stroke-width="0px" />   <g>      </g> </svg>